<mxfile>
    <diagram id="0HsK2dCpS48mHsHBx_S8" name="Bisección">
        <mxGraphModel dx="820" dy="478" grid="1" gridSize="10" guides="1" tooltips="1" connect="1" arrows="1" fold="1" page="1" pageScale="1" pageWidth="827" pageHeight="1169" math="0" shadow="1">
            <root>
                <mxCell id="0"/>
                <mxCell id="1" parent="0"/>
                <mxCell id="_HtPel20OnQxB3GCHh4z-3" value="" style="edgeStyle=orthogonalEdgeStyle;rounded=0;orthogonalLoop=1;jettySize=auto;html=1;" edge="1" parent="1" source="2" target="_HtPel20OnQxB3GCHh4z-2">
                    <mxGeometry relative="1" as="geometry"/>
                </mxCell>
                <mxCell id="2" value="INICIO" style="rounded=1;whiteSpace=wrap;html=1;" vertex="1" parent="1">
                    <mxGeometry x="330" y="10" width="120" height="60" as="geometry"/>
                </mxCell>
                <mxCell id="m8pZ5YNdjpv_93wiCdQR-6" value="" style="edgeStyle=orthogonalEdgeStyle;rounded=0;orthogonalLoop=1;jettySize=auto;html=1;" edge="1" parent="1" source="m8pZ5YNdjpv_93wiCdQR-3" target="m8pZ5YNdjpv_93wiCdQR-5">
                    <mxGeometry relative="1" as="geometry"/>
                </mxCell>
                <mxCell id="m8pZ5YNdjpv_93wiCdQR-3" value="Calculo de la función en ambos extremos del intervalo.&lt;br&gt;(f1, f2)" style="shape=process;whiteSpace=wrap;html=1;backgroundOutline=1;" vertex="1" parent="1">
                    <mxGeometry x="290" y="200" width="200" height="80" as="geometry"/>
                </mxCell>
                <mxCell id="m8pZ5YNdjpv_93wiCdQR-11" value="" style="edgeStyle=orthogonalEdgeStyle;rounded=0;orthogonalLoop=1;jettySize=auto;html=1;" edge="1" parent="1" source="m8pZ5YNdjpv_93wiCdQR-5" target="m8pZ5YNdjpv_93wiCdQR-13">
                    <mxGeometry relative="1" as="geometry">
                        <mxPoint x="390" y="450" as="targetPoint"/>
                    </mxGeometry>
                </mxCell>
                <mxCell id="m8pZ5YNdjpv_93wiCdQR-51" style="edgeStyle=orthogonalEdgeStyle;rounded=0;orthogonalLoop=1;jettySize=auto;html=1;exitX=1;exitY=0.5;exitDx=0;exitDy=0;" edge="1" parent="1" source="m8pZ5YNdjpv_93wiCdQR-5" target="m8pZ5YNdjpv_93wiCdQR-48">
                    <mxGeometry relative="1" as="geometry"/>
                </mxCell>
                <mxCell id="m8pZ5YNdjpv_93wiCdQR-5" value="( f1 * f2 ) &amp;lt; 0" style="rhombus;whiteSpace=wrap;html=1;" vertex="1" parent="1">
                    <mxGeometry x="335" y="330" width="110" height="80" as="geometry"/>
                </mxCell>
                <mxCell id="m8pZ5YNdjpv_93wiCdQR-12" value="Sí" style="text;html=1;align=center;verticalAlign=middle;resizable=0;points=[];autosize=1;strokeColor=none;" vertex="1" parent="1">
                    <mxGeometry x="399" y="420" width="30" height="20" as="geometry"/>
                </mxCell>
                <mxCell id="m8pZ5YNdjpv_93wiCdQR-15" value="" style="edgeStyle=orthogonalEdgeStyle;rounded=0;orthogonalLoop=1;jettySize=auto;html=1;" edge="1" parent="1" source="m8pZ5YNdjpv_93wiCdQR-13" target="m8pZ5YNdjpv_93wiCdQR-14">
                    <mxGeometry relative="1" as="geometry"/>
                </mxCell>
                <mxCell id="m8pZ5YNdjpv_93wiCdQR-13" value="&lt;span&gt;Calculo de la aproximación&lt;br&gt;sol = (a + b) / 2&lt;/span&gt;&lt;br&gt;&lt;span&gt;tmp = f (sol)&lt;/span&gt;" style="rounded=0;whiteSpace=wrap;html=1;" vertex="1" parent="1">
                    <mxGeometry x="325" y="450" width="130" height="70" as="geometry"/>
                </mxCell>
                <mxCell id="m8pZ5YNdjpv_93wiCdQR-18" value="" style="edgeStyle=orthogonalEdgeStyle;rounded=0;orthogonalLoop=1;jettySize=auto;html=1;entryX=0.5;entryY=0;entryDx=0;entryDy=0;exitX=0.5;exitY=1;exitDx=0;exitDy=0;" edge="1" parent="1" source="m8pZ5YNdjpv_93wiCdQR-14" target="m8pZ5YNdjpv_93wiCdQR-17">
                    <mxGeometry relative="1" as="geometry">
                        <mxPoint x="250" y="670" as="sourcePoint"/>
                        <Array as="points">
                            <mxPoint x="285" y="650"/>
                        </Array>
                    </mxGeometry>
                </mxCell>
                <mxCell id="m8pZ5YNdjpv_93wiCdQR-23" value="" style="edgeStyle=orthogonalEdgeStyle;rounded=0;orthogonalLoop=1;jettySize=auto;html=1;" edge="1" parent="1" source="m8pZ5YNdjpv_93wiCdQR-14" target="m8pZ5YNdjpv_93wiCdQR-22">
                    <mxGeometry relative="1" as="geometry"/>
                </mxCell>
                <mxCell id="m8pZ5YNdjpv_93wiCdQR-14" value="tmp &amp;lt; 0 y f1 &amp;lt; f2" style="rhombus;whiteSpace=wrap;html=1;" vertex="1" parent="1">
                    <mxGeometry x="220" y="570" width="130" height="80" as="geometry"/>
                </mxCell>
                <mxCell id="m8pZ5YNdjpv_93wiCdQR-36" value="" style="edgeStyle=orthogonalEdgeStyle;rounded=0;orthogonalLoop=1;jettySize=auto;html=1;entryX=0.5;entryY=0;entryDx=0;entryDy=0;" edge="1" parent="1" source="m8pZ5YNdjpv_93wiCdQR-17" target="m8pZ5YNdjpv_93wiCdQR-34">
                    <mxGeometry relative="1" as="geometry">
                        <mxPoint x="285" y="850" as="targetPoint"/>
                    </mxGeometry>
                </mxCell>
                <mxCell id="m8pZ5YNdjpv_93wiCdQR-17" value="Reemplazamos extremo &quot;a&quot; con la aproximación&lt;br&gt;(a = sol)" style="whiteSpace=wrap;html=1;" vertex="1" parent="1">
                    <mxGeometry x="220" y="710" width="130" height="60" as="geometry"/>
                </mxCell>
                <mxCell id="m8pZ5YNdjpv_93wiCdQR-19" value="Sí" style="text;html=1;align=center;verticalAlign=middle;resizable=0;points=[];autosize=1;strokeColor=none;" vertex="1" parent="1">
                    <mxGeometry x="290" y="650" width="30" height="20" as="geometry"/>
                </mxCell>
                <mxCell id="m8pZ5YNdjpv_93wiCdQR-26" value="" style="edgeStyle=orthogonalEdgeStyle;rounded=0;orthogonalLoop=1;jettySize=auto;html=1;entryX=0.5;entryY=0;entryDx=0;entryDy=0;exitX=0.5;exitY=1;exitDx=0;exitDy=0;" edge="1" parent="1" source="m8pZ5YNdjpv_93wiCdQR-22" target="m8pZ5YNdjpv_93wiCdQR-17">
                    <mxGeometry relative="1" as="geometry">
                        <mxPoint x="410" y="660" as="sourcePoint"/>
                        <Array as="points">
                            <mxPoint x="480" y="680"/>
                            <mxPoint x="285" y="680"/>
                        </Array>
                    </mxGeometry>
                </mxCell>
                <mxCell id="m8pZ5YNdjpv_93wiCdQR-29" value="" style="edgeStyle=orthogonalEdgeStyle;rounded=0;orthogonalLoop=1;jettySize=auto;html=1;entryX=0.5;entryY=0;entryDx=0;entryDy=0;exitX=1;exitY=0.5;exitDx=0;exitDy=0;" edge="1" parent="1" source="m8pZ5YNdjpv_93wiCdQR-22" target="m8pZ5YNdjpv_93wiCdQR-31">
                    <mxGeometry relative="1" as="geometry">
                        <mxPoint x="520" y="610" as="targetPoint"/>
                    </mxGeometry>
                </mxCell>
                <mxCell id="m8pZ5YNdjpv_93wiCdQR-22" value="tmp &amp;gt; 0 y f1 &amp;gt; f2" style="rhombus;whiteSpace=wrap;html=1;" vertex="1" parent="1">
                    <mxGeometry x="420" y="570" width="120" height="80" as="geometry"/>
                </mxCell>
                <mxCell id="m8pZ5YNdjpv_93wiCdQR-24" value="No" style="text;html=1;align=center;verticalAlign=middle;resizable=0;points=[];autosize=1;strokeColor=none;" vertex="1" parent="1">
                    <mxGeometry x="335" y="580" width="30" height="20" as="geometry"/>
                </mxCell>
                <mxCell id="m8pZ5YNdjpv_93wiCdQR-27" value="Sí" style="text;html=1;align=center;verticalAlign=middle;resizable=0;points=[];autosize=1;strokeColor=none;" vertex="1" parent="1">
                    <mxGeometry x="479" y="650" width="30" height="20" as="geometry"/>
                </mxCell>
                <mxCell id="m8pZ5YNdjpv_93wiCdQR-30" value="No" style="text;html=1;align=center;verticalAlign=middle;resizable=0;points=[];autosize=1;strokeColor=none;" vertex="1" parent="1">
                    <mxGeometry x="532.5" y="580" width="30" height="20" as="geometry"/>
                </mxCell>
                <mxCell id="m8pZ5YNdjpv_93wiCdQR-37" style="edgeStyle=orthogonalEdgeStyle;rounded=0;orthogonalLoop=1;jettySize=auto;html=1;exitX=0.5;exitY=1;exitDx=0;exitDy=0;" edge="1" parent="1" source="m8pZ5YNdjpv_93wiCdQR-31">
                    <mxGeometry relative="1" as="geometry">
                        <mxPoint x="390" y="820" as="targetPoint"/>
                    </mxGeometry>
                </mxCell>
                <mxCell id="m8pZ5YNdjpv_93wiCdQR-31" value="Reemplazamos extremo &quot;b&quot; con la aproximación&lt;br&gt;(b = sol)" style="whiteSpace=wrap;html=1;" vertex="1" parent="1">
                    <mxGeometry x="429" y="710" width="130" height="60" as="geometry"/>
                </mxCell>
                <mxCell id="m8pZ5YNdjpv_93wiCdQR-38" style="edgeStyle=orthogonalEdgeStyle;rounded=0;orthogonalLoop=1;jettySize=auto;html=1;exitX=0;exitY=0.5;exitDx=0;exitDy=0;entryX=0;entryY=0.5;entryDx=0;entryDy=0;" edge="1" parent="1" source="m8pZ5YNdjpv_93wiCdQR-34" target="m8pZ5YNdjpv_93wiCdQR-3">
                    <mxGeometry relative="1" as="geometry">
                        <Array as="points">
                            <mxPoint x="190" y="860"/>
                            <mxPoint x="190" y="240"/>
                        </Array>
                    </mxGeometry>
                </mxCell>
                <mxCell id="m8pZ5YNdjpv_93wiCdQR-41" value="" style="edgeStyle=orthogonalEdgeStyle;rounded=0;orthogonalLoop=1;jettySize=auto;html=1;exitX=0.5;exitY=1;exitDx=0;exitDy=0;" edge="1" parent="1" source="m8pZ5YNdjpv_93wiCdQR-34" target="m8pZ5YNdjpv_93wiCdQR-40">
                    <mxGeometry relative="1" as="geometry"/>
                </mxCell>
                <mxCell id="m8pZ5YNdjpv_93wiCdQR-34" value="| sol - antSol | &amp;gt; error" style="rhombus;whiteSpace=wrap;html=1;" vertex="1" parent="1">
                    <mxGeometry x="307.5" y="820" width="165" height="80" as="geometry"/>
                </mxCell>
                <mxCell id="m8pZ5YNdjpv_93wiCdQR-39" value="Sí" style="text;html=1;align=center;verticalAlign=middle;resizable=0;points=[];autosize=1;strokeColor=none;" vertex="1" parent="1">
                    <mxGeometry x="290" y="860" width="30" height="20" as="geometry"/>
                </mxCell>
                <mxCell id="m8pZ5YNdjpv_93wiCdQR-44" value="" style="edgeStyle=orthogonalEdgeStyle;rounded=0;orthogonalLoop=1;jettySize=auto;html=1;" edge="1" parent="1" source="m8pZ5YNdjpv_93wiCdQR-40" target="m8pZ5YNdjpv_93wiCdQR-43">
                    <mxGeometry relative="1" as="geometry"/>
                </mxCell>
                <mxCell id="m8pZ5YNdjpv_93wiCdQR-40" value="Regresa sol" style="whiteSpace=wrap;html=1;" vertex="1" parent="1">
                    <mxGeometry x="330" y="940" width="120" height="60" as="geometry"/>
                </mxCell>
                <mxCell id="m8pZ5YNdjpv_93wiCdQR-42" value="No" style="text;html=1;align=center;verticalAlign=middle;resizable=0;points=[];autosize=1;strokeColor=none;" vertex="1" parent="1">
                    <mxGeometry x="390" y="900" width="30" height="20" as="geometry"/>
                </mxCell>
                <mxCell id="m8pZ5YNdjpv_93wiCdQR-43" value="FIN" style="rounded=1;whiteSpace=wrap;html=1;" vertex="1" parent="1">
                    <mxGeometry x="330" y="1050" width="120" height="60" as="geometry"/>
                </mxCell>
                <mxCell id="m8pZ5YNdjpv_93wiCdQR-47" value="No" style="text;html=1;align=center;verticalAlign=middle;resizable=0;points=[];autosize=1;strokeColor=none;" vertex="1" parent="1">
                    <mxGeometry x="435" y="340" width="30" height="20" as="geometry"/>
                </mxCell>
                <mxCell id="m8pZ5YNdjpv_93wiCdQR-50" value="" style="edgeStyle=orthogonalEdgeStyle;rounded=0;orthogonalLoop=1;jettySize=auto;html=1;entryX=0.5;entryY=0;entryDx=0;entryDy=0;exitX=0.5;exitY=1;exitDx=0;exitDy=0;" edge="1" parent="1" source="m8pZ5YNdjpv_93wiCdQR-48" target="m8pZ5YNdjpv_93wiCdQR-43">
                    <mxGeometry relative="1" as="geometry">
                        <mxPoint x="592.5" y="1080" as="targetPoint"/>
                        <Array as="points">
                            <mxPoint x="590" y="1020"/>
                            <mxPoint x="390" y="1020"/>
                        </Array>
                    </mxGeometry>
                </mxCell>
                <mxCell id="m8pZ5YNdjpv_93wiCdQR-48" value="Regresa -1" style="whiteSpace=wrap;html=1;" vertex="1" parent="1">
                    <mxGeometry x="530" y="940" width="120" height="60" as="geometry"/>
                </mxCell>
                <mxCell id="_HtPel20OnQxB3GCHh4z-4" value="" style="edgeStyle=orthogonalEdgeStyle;rounded=0;orthogonalLoop=1;jettySize=auto;html=1;" edge="1" parent="1" source="_HtPel20OnQxB3GCHh4z-2" target="m8pZ5YNdjpv_93wiCdQR-3">
                    <mxGeometry relative="1" as="geometry"/>
                </mxCell>
                <mxCell id="_HtPel20OnQxB3GCHh4z-2" value="Recibe la función, el intervalo a trabajar y el porcentaje de error&lt;br&gt;antSol = 0" style="shape=parallelogram;perimeter=parallelogramPerimeter;whiteSpace=wrap;html=1;fixedSize=1;" vertex="1" parent="1">
                    <mxGeometry x="285" y="110" width="210" height="60" as="geometry"/>
                </mxCell>
            </root>
        </mxGraphModel>
    </diagram>
    <diagram name="Regla_Falsa" id="_OzYYZl9BlqiB1QYTK8i">
        <mxGraphModel dx="820" dy="478" grid="1" gridSize="10" guides="1" tooltips="1" connect="1" arrows="1" fold="1" page="1" pageScale="1" pageWidth="827" pageHeight="1169" math="0" shadow="1">
            <root>
                <mxCell id="bIApU25oZhVEq7_csvPM-0"/>
                <mxCell id="bIApU25oZhVEq7_csvPM-1" parent="bIApU25oZhVEq7_csvPM-0"/>
                <mxCell id="bIApU25oZhVEq7_csvPM-40" value="" style="edgeStyle=orthogonalEdgeStyle;rounded=0;orthogonalLoop=1;jettySize=auto;html=1;" edge="1" parent="bIApU25oZhVEq7_csvPM-1" source="bIApU25oZhVEq7_csvPM-3" target="bIApU25oZhVEq7_csvPM-39">
                    <mxGeometry relative="1" as="geometry"/>
                </mxCell>
                <mxCell id="bIApU25oZhVEq7_csvPM-3" value="INICIO" style="rounded=1;whiteSpace=wrap;html=1;" vertex="1" parent="bIApU25oZhVEq7_csvPM-1">
                    <mxGeometry x="330" y="20" width="120" height="60" as="geometry"/>
                </mxCell>
                <mxCell id="bIApU25oZhVEq7_csvPM-4" value="" style="edgeStyle=orthogonalEdgeStyle;rounded=0;orthogonalLoop=1;jettySize=auto;html=1;" edge="1" parent="bIApU25oZhVEq7_csvPM-1" source="bIApU25oZhVEq7_csvPM-5" target="bIApU25oZhVEq7_csvPM-8">
                    <mxGeometry relative="1" as="geometry"/>
                </mxCell>
                <mxCell id="bIApU25oZhVEq7_csvPM-5" value="Calculo de la función en ambos extremos del intervalo.&lt;br&gt;(f1, f2)" style="shape=process;whiteSpace=wrap;html=1;backgroundOutline=1;" vertex="1" parent="bIApU25oZhVEq7_csvPM-1">
                    <mxGeometry x="290" y="210" width="200" height="80" as="geometry"/>
                </mxCell>
                <mxCell id="bIApU25oZhVEq7_csvPM-6" value="" style="edgeStyle=orthogonalEdgeStyle;rounded=0;orthogonalLoop=1;jettySize=auto;html=1;" edge="1" parent="bIApU25oZhVEq7_csvPM-1" source="bIApU25oZhVEq7_csvPM-8" target="bIApU25oZhVEq7_csvPM-11">
                    <mxGeometry relative="1" as="geometry">
                        <mxPoint x="390" y="460" as="targetPoint"/>
                    </mxGeometry>
                </mxCell>
                <mxCell id="bIApU25oZhVEq7_csvPM-7" style="edgeStyle=orthogonalEdgeStyle;rounded=0;orthogonalLoop=1;jettySize=auto;html=1;exitX=1;exitY=0.5;exitDx=0;exitDy=0;" edge="1" parent="bIApU25oZhVEq7_csvPM-1" source="bIApU25oZhVEq7_csvPM-8" target="bIApU25oZhVEq7_csvPM-36">
                    <mxGeometry relative="1" as="geometry"/>
                </mxCell>
                <mxCell id="bIApU25oZhVEq7_csvPM-8" value="( f1 * f2 ) &amp;lt; 0" style="rhombus;whiteSpace=wrap;html=1;" vertex="1" parent="bIApU25oZhVEq7_csvPM-1">
                    <mxGeometry x="335" y="340" width="110" height="80" as="geometry"/>
                </mxCell>
                <mxCell id="bIApU25oZhVEq7_csvPM-9" value="Sí" style="text;html=1;align=center;verticalAlign=middle;resizable=0;points=[];autosize=1;strokeColor=none;" vertex="1" parent="bIApU25oZhVEq7_csvPM-1">
                    <mxGeometry x="399" y="430" width="30" height="20" as="geometry"/>
                </mxCell>
                <mxCell id="bIApU25oZhVEq7_csvPM-10" value="" style="edgeStyle=orthogonalEdgeStyle;rounded=0;orthogonalLoop=1;jettySize=auto;html=1;" edge="1" parent="bIApU25oZhVEq7_csvPM-1" source="bIApU25oZhVEq7_csvPM-11" target="bIApU25oZhVEq7_csvPM-14">
                    <mxGeometry relative="1" as="geometry"/>
                </mxCell>
                <mxCell id="bIApU25oZhVEq7_csvPM-11" value="&lt;span&gt;Calculo de la aproximación&lt;br&gt;sol = a + ((f1*(a - b)) / (f2 - f1))&lt;/span&gt;&lt;br&gt;&lt;span&gt;tmp = f (sol)&lt;/span&gt;" style="rounded=0;whiteSpace=wrap;html=1;" vertex="1" parent="bIApU25oZhVEq7_csvPM-1">
                    <mxGeometry x="297.5" y="460" width="185" height="70" as="geometry"/>
                </mxCell>
                <mxCell id="bIApU25oZhVEq7_csvPM-12" value="" style="edgeStyle=orthogonalEdgeStyle;rounded=0;orthogonalLoop=1;jettySize=auto;html=1;entryX=0.5;entryY=0;entryDx=0;entryDy=0;exitX=0.5;exitY=1;exitDx=0;exitDy=0;" edge="1" parent="bIApU25oZhVEq7_csvPM-1" source="bIApU25oZhVEq7_csvPM-14" target="bIApU25oZhVEq7_csvPM-16">
                    <mxGeometry relative="1" as="geometry">
                        <mxPoint x="250" y="680" as="sourcePoint"/>
                        <Array as="points">
                            <mxPoint x="285" y="660"/>
                        </Array>
                    </mxGeometry>
                </mxCell>
                <mxCell id="bIApU25oZhVEq7_csvPM-13" value="" style="edgeStyle=orthogonalEdgeStyle;rounded=0;orthogonalLoop=1;jettySize=auto;html=1;" edge="1" parent="bIApU25oZhVEq7_csvPM-1" source="bIApU25oZhVEq7_csvPM-14" target="bIApU25oZhVEq7_csvPM-20">
                    <mxGeometry relative="1" as="geometry"/>
                </mxCell>
                <mxCell id="bIApU25oZhVEq7_csvPM-14" value="tmp &amp;lt; 0 y f1 &amp;lt; f2" style="rhombus;whiteSpace=wrap;html=1;" vertex="1" parent="bIApU25oZhVEq7_csvPM-1">
                    <mxGeometry x="220" y="580" width="130" height="80" as="geometry"/>
                </mxCell>
                <mxCell id="bIApU25oZhVEq7_csvPM-15" value="" style="edgeStyle=orthogonalEdgeStyle;rounded=0;orthogonalLoop=1;jettySize=auto;html=1;entryX=0.5;entryY=0;entryDx=0;entryDy=0;" edge="1" parent="bIApU25oZhVEq7_csvPM-1" source="bIApU25oZhVEq7_csvPM-16" target="bIApU25oZhVEq7_csvPM-28">
                    <mxGeometry relative="1" as="geometry">
                        <mxPoint x="285" y="860" as="targetPoint"/>
                    </mxGeometry>
                </mxCell>
                <mxCell id="bIApU25oZhVEq7_csvPM-16" value="Reemplazamos extremo &quot;a&quot; con la aproximación&lt;br&gt;(a = sol)" style="whiteSpace=wrap;html=1;" vertex="1" parent="bIApU25oZhVEq7_csvPM-1">
                    <mxGeometry x="220" y="720" width="130" height="60" as="geometry"/>
                </mxCell>
                <mxCell id="bIApU25oZhVEq7_csvPM-17" value="Sí" style="text;html=1;align=center;verticalAlign=middle;resizable=0;points=[];autosize=1;strokeColor=none;" vertex="1" parent="bIApU25oZhVEq7_csvPM-1">
                    <mxGeometry x="290" y="660" width="30" height="20" as="geometry"/>
                </mxCell>
                <mxCell id="bIApU25oZhVEq7_csvPM-18" value="" style="edgeStyle=orthogonalEdgeStyle;rounded=0;orthogonalLoop=1;jettySize=auto;html=1;entryX=0.5;entryY=0;entryDx=0;entryDy=0;exitX=0.5;exitY=1;exitDx=0;exitDy=0;" edge="1" parent="bIApU25oZhVEq7_csvPM-1" source="bIApU25oZhVEq7_csvPM-20" target="bIApU25oZhVEq7_csvPM-16">
                    <mxGeometry relative="1" as="geometry">
                        <mxPoint x="410" y="670" as="sourcePoint"/>
                        <Array as="points">
                            <mxPoint x="480" y="690"/>
                            <mxPoint x="285" y="690"/>
                        </Array>
                    </mxGeometry>
                </mxCell>
                <mxCell id="bIApU25oZhVEq7_csvPM-19" value="" style="edgeStyle=orthogonalEdgeStyle;rounded=0;orthogonalLoop=1;jettySize=auto;html=1;entryX=0.5;entryY=0;entryDx=0;entryDy=0;exitX=1;exitY=0.5;exitDx=0;exitDy=0;" edge="1" parent="bIApU25oZhVEq7_csvPM-1" source="bIApU25oZhVEq7_csvPM-20" target="bIApU25oZhVEq7_csvPM-25">
                    <mxGeometry relative="1" as="geometry">
                        <mxPoint x="520" y="620" as="targetPoint"/>
                    </mxGeometry>
                </mxCell>
                <mxCell id="bIApU25oZhVEq7_csvPM-20" value="tmp &amp;gt; 0 y f1 &amp;gt; f2" style="rhombus;whiteSpace=wrap;html=1;" vertex="1" parent="bIApU25oZhVEq7_csvPM-1">
                    <mxGeometry x="420" y="580" width="120" height="80" as="geometry"/>
                </mxCell>
                <mxCell id="bIApU25oZhVEq7_csvPM-21" value="No" style="text;html=1;align=center;verticalAlign=middle;resizable=0;points=[];autosize=1;strokeColor=none;" vertex="1" parent="bIApU25oZhVEq7_csvPM-1">
                    <mxGeometry x="335" y="590" width="30" height="20" as="geometry"/>
                </mxCell>
                <mxCell id="bIApU25oZhVEq7_csvPM-22" value="Sí" style="text;html=1;align=center;verticalAlign=middle;resizable=0;points=[];autosize=1;strokeColor=none;" vertex="1" parent="bIApU25oZhVEq7_csvPM-1">
                    <mxGeometry x="479" y="660" width="30" height="20" as="geometry"/>
                </mxCell>
                <mxCell id="bIApU25oZhVEq7_csvPM-23" value="No" style="text;html=1;align=center;verticalAlign=middle;resizable=0;points=[];autosize=1;strokeColor=none;" vertex="1" parent="bIApU25oZhVEq7_csvPM-1">
                    <mxGeometry x="532.5" y="590" width="30" height="20" as="geometry"/>
                </mxCell>
                <mxCell id="bIApU25oZhVEq7_csvPM-24" style="edgeStyle=orthogonalEdgeStyle;rounded=0;orthogonalLoop=1;jettySize=auto;html=1;exitX=0.5;exitY=1;exitDx=0;exitDy=0;" edge="1" parent="bIApU25oZhVEq7_csvPM-1" source="bIApU25oZhVEq7_csvPM-25">
                    <mxGeometry relative="1" as="geometry">
                        <mxPoint x="390" y="830" as="targetPoint"/>
                    </mxGeometry>
                </mxCell>
                <mxCell id="bIApU25oZhVEq7_csvPM-25" value="Reemplazamos extremo &quot;b&quot; con la aproximación&lt;br&gt;(b = sol)" style="whiteSpace=wrap;html=1;" vertex="1" parent="bIApU25oZhVEq7_csvPM-1">
                    <mxGeometry x="429" y="720" width="130" height="60" as="geometry"/>
                </mxCell>
                <mxCell id="bIApU25oZhVEq7_csvPM-26" style="edgeStyle=orthogonalEdgeStyle;rounded=0;orthogonalLoop=1;jettySize=auto;html=1;exitX=0;exitY=0.5;exitDx=0;exitDy=0;entryX=0;entryY=0.5;entryDx=0;entryDy=0;" edge="1" parent="bIApU25oZhVEq7_csvPM-1" source="bIApU25oZhVEq7_csvPM-28" target="bIApU25oZhVEq7_csvPM-5">
                    <mxGeometry relative="1" as="geometry">
                        <Array as="points">
                            <mxPoint x="190" y="870"/>
                            <mxPoint x="190" y="250"/>
                        </Array>
                    </mxGeometry>
                </mxCell>
                <mxCell id="bIApU25oZhVEq7_csvPM-27" value="" style="edgeStyle=orthogonalEdgeStyle;rounded=0;orthogonalLoop=1;jettySize=auto;html=1;exitX=0.5;exitY=1;exitDx=0;exitDy=0;" edge="1" parent="bIApU25oZhVEq7_csvPM-1" source="bIApU25oZhVEq7_csvPM-28" target="bIApU25oZhVEq7_csvPM-31">
                    <mxGeometry relative="1" as="geometry"/>
                </mxCell>
                <mxCell id="bIApU25oZhVEq7_csvPM-28" value="| sol - antSol | &amp;gt; error" style="rhombus;whiteSpace=wrap;html=1;" vertex="1" parent="bIApU25oZhVEq7_csvPM-1">
                    <mxGeometry x="307.5" y="830" width="165" height="80" as="geometry"/>
                </mxCell>
                <mxCell id="bIApU25oZhVEq7_csvPM-29" value="Sí" style="text;html=1;align=center;verticalAlign=middle;resizable=0;points=[];autosize=1;strokeColor=none;" vertex="1" parent="bIApU25oZhVEq7_csvPM-1">
                    <mxGeometry x="290" y="870" width="30" height="20" as="geometry"/>
                </mxCell>
                <mxCell id="bIApU25oZhVEq7_csvPM-30" value="" style="edgeStyle=orthogonalEdgeStyle;rounded=0;orthogonalLoop=1;jettySize=auto;html=1;" edge="1" parent="bIApU25oZhVEq7_csvPM-1" source="bIApU25oZhVEq7_csvPM-31" target="bIApU25oZhVEq7_csvPM-33">
                    <mxGeometry relative="1" as="geometry"/>
                </mxCell>
                <mxCell id="bIApU25oZhVEq7_csvPM-31" value="Regresa sol" style="whiteSpace=wrap;html=1;" vertex="1" parent="bIApU25oZhVEq7_csvPM-1">
                    <mxGeometry x="330" y="950" width="120" height="60" as="geometry"/>
                </mxCell>
                <mxCell id="bIApU25oZhVEq7_csvPM-32" value="No" style="text;html=1;align=center;verticalAlign=middle;resizable=0;points=[];autosize=1;strokeColor=none;" vertex="1" parent="bIApU25oZhVEq7_csvPM-1">
                    <mxGeometry x="390" y="910" width="30" height="20" as="geometry"/>
                </mxCell>
                <mxCell id="bIApU25oZhVEq7_csvPM-33" value="FIN" style="rounded=1;whiteSpace=wrap;html=1;" vertex="1" parent="bIApU25oZhVEq7_csvPM-1">
                    <mxGeometry x="330" y="1060" width="120" height="60" as="geometry"/>
                </mxCell>
                <mxCell id="bIApU25oZhVEq7_csvPM-34" value="No" style="text;html=1;align=center;verticalAlign=middle;resizable=0;points=[];autosize=1;strokeColor=none;" vertex="1" parent="bIApU25oZhVEq7_csvPM-1">
                    <mxGeometry x="435" y="350" width="30" height="20" as="geometry"/>
                </mxCell>
                <mxCell id="bIApU25oZhVEq7_csvPM-35" value="" style="edgeStyle=orthogonalEdgeStyle;rounded=0;orthogonalLoop=1;jettySize=auto;html=1;entryX=0.5;entryY=0;entryDx=0;entryDy=0;exitX=0.5;exitY=1;exitDx=0;exitDy=0;" edge="1" parent="bIApU25oZhVEq7_csvPM-1" source="bIApU25oZhVEq7_csvPM-36" target="bIApU25oZhVEq7_csvPM-33">
                    <mxGeometry relative="1" as="geometry">
                        <mxPoint x="592.5" y="1090" as="targetPoint"/>
                        <Array as="points">
                            <mxPoint x="590" y="1030"/>
                            <mxPoint x="390" y="1030"/>
                        </Array>
                    </mxGeometry>
                </mxCell>
                <mxCell id="bIApU25oZhVEq7_csvPM-36" value="Regresa -1" style="whiteSpace=wrap;html=1;" vertex="1" parent="bIApU25oZhVEq7_csvPM-1">
                    <mxGeometry x="530" y="950" width="120" height="60" as="geometry"/>
                </mxCell>
                <mxCell id="bIApU25oZhVEq7_csvPM-41" value="" style="edgeStyle=orthogonalEdgeStyle;rounded=0;orthogonalLoop=1;jettySize=auto;html=1;" edge="1" parent="bIApU25oZhVEq7_csvPM-1" source="bIApU25oZhVEq7_csvPM-39" target="bIApU25oZhVEq7_csvPM-5">
                    <mxGeometry relative="1" as="geometry"/>
                </mxCell>
                <mxCell id="bIApU25oZhVEq7_csvPM-39" value="Recibe la función, el intervalo a trabajar y el porcentaje de error&lt;br&gt;antSol = 0" style="shape=parallelogram;perimeter=parallelogramPerimeter;whiteSpace=wrap;html=1;fixedSize=1;" vertex="1" parent="bIApU25oZhVEq7_csvPM-1">
                    <mxGeometry x="285" y="110" width="210" height="60" as="geometry"/>
                </mxCell>
            </root>
        </mxGraphModel>
    </diagram>
    <diagram id="Mk5h0s6YM85UCMZvCpLZ" name="Newton_Raphson">
        <mxGraphModel dx="820" dy="1647" grid="1" gridSize="10" guides="1" tooltips="1" connect="1" arrows="1" fold="1" page="1" pageScale="1" pageWidth="827" pageHeight="1169" background="none" math="0" shadow="1">
            <root>
                <mxCell id="KJxBiZAR6ty1Yu_1hC99-0"/>
                <mxCell id="KJxBiZAR6ty1Yu_1hC99-1" parent="KJxBiZAR6ty1Yu_1hC99-0"/>
                <mxCell id="nXtj2GoQp5qjTCfgWl4B-1" style="edgeStyle=orthogonalEdgeStyle;rounded=0;orthogonalLoop=1;jettySize=auto;html=1;exitX=0.5;exitY=1;exitDx=0;exitDy=0;entryX=0.5;entryY=0;entryDx=0;entryDy=0;" edge="1" parent="KJxBiZAR6ty1Yu_1hC99-1" source="t31jBEhmoOyKMz4r88Xp-1" target="nXtj2GoQp5qjTCfgWl4B-0">
                    <mxGeometry relative="1" as="geometry"/>
                </mxCell>
                <mxCell id="t31jBEhmoOyKMz4r88Xp-1" value="Recibe la función y sus derivadas, el intervalo a trabajar y el porcentaje de error&lt;br&gt;antSol = 0" style="shape=parallelogram;perimeter=parallelogramPerimeter;whiteSpace=wrap;html=1;fixedSize=1;" vertex="1" parent="KJxBiZAR6ty1Yu_1hC99-1">
                    <mxGeometry x="277.5" y="-870" width="225" height="60" as="geometry"/>
                </mxCell>
                <mxCell id="t31jBEhmoOyKMz4r88Xp-3" value="" style="edgeStyle=orthogonalEdgeStyle;rounded=0;orthogonalLoop=1;jettySize=auto;html=1;" edge="1" parent="KJxBiZAR6ty1Yu_1hC99-1" source="t31jBEhmoOyKMz4r88Xp-2" target="t31jBEhmoOyKMz4r88Xp-1">
                    <mxGeometry relative="1" as="geometry"/>
                </mxCell>
                <mxCell id="t31jBEhmoOyKMz4r88Xp-2" value="INICIO" style="rounded=1;whiteSpace=wrap;html=1;" vertex="1" parent="KJxBiZAR6ty1Yu_1hC99-1">
                    <mxGeometry x="330" y="-970" width="120" height="60" as="geometry"/>
                </mxCell>
                <mxCell id="nXtj2GoQp5qjTCfgWl4B-5" value="" style="edgeStyle=orthogonalEdgeStyle;rounded=0;orthogonalLoop=1;jettySize=auto;html=1;" edge="1" parent="KJxBiZAR6ty1Yu_1hC99-1" source="nXtj2GoQp5qjTCfgWl4B-0" target="nXtj2GoQp5qjTCfgWl4B-4">
                    <mxGeometry relative="1" as="geometry"/>
                </mxCell>
                <mxCell id="nXtj2GoQp5qjTCfgWl4B-8" value="" style="edgeStyle=orthogonalEdgeStyle;rounded=0;orthogonalLoop=1;jettySize=auto;html=1;" edge="1" parent="KJxBiZAR6ty1Yu_1hC99-1" source="nXtj2GoQp5qjTCfgWl4B-0" target="nXtj2GoQp5qjTCfgWl4B-7">
                    <mxGeometry relative="1" as="geometry"/>
                </mxCell>
                <mxCell id="nXtj2GoQp5qjTCfgWl4B-0" value="antSol = 0" style="rhombus;whiteSpace=wrap;html=1;" vertex="1" parent="KJxBiZAR6ty1Yu_1hC99-1">
                    <mxGeometry x="335" y="-770" width="110" height="80" as="geometry"/>
                </mxCell>
                <mxCell id="nXtj2GoQp5qjTCfgWl4B-9" style="edgeStyle=orthogonalEdgeStyle;rounded=0;orthogonalLoop=1;jettySize=auto;html=1;exitX=0.5;exitY=1;exitDx=0;exitDy=0;entryX=1;entryY=0.5;entryDx=0;entryDy=0;" edge="1" parent="KJxBiZAR6ty1Yu_1hC99-1" source="nXtj2GoQp5qjTCfgWl4B-4" target="nXtj2GoQp5qjTCfgWl4B-7">
                    <mxGeometry relative="1" as="geometry"/>
                </mxCell>
                <mxCell id="nXtj2GoQp5qjTCfgWl4B-4" value="Calculo de antSol con Bisección" style="shape=process;whiteSpace=wrap;html=1;backgroundOutline=1;" vertex="1" parent="KJxBiZAR6ty1Yu_1hC99-1">
                    <mxGeometry x="502.5" y="-760" width="120" height="60" as="geometry"/>
                </mxCell>
                <mxCell id="nXtj2GoQp5qjTCfgWl4B-6" value="Sí" style="text;html=1;align=center;verticalAlign=middle;resizable=0;points=[];autosize=1;strokeColor=none;" vertex="1" parent="KJxBiZAR6ty1Yu_1hC99-1">
                    <mxGeometry x="425" y="-760" width="30" height="20" as="geometry"/>
                </mxCell>
                <mxCell id="nXtj2GoQp5qjTCfgWl4B-12" value="" style="edgeStyle=orthogonalEdgeStyle;rounded=0;orthogonalLoop=1;jettySize=auto;html=1;" edge="1" parent="KJxBiZAR6ty1Yu_1hC99-1" source="nXtj2GoQp5qjTCfgWl4B-7" target="nXtj2GoQp5qjTCfgWl4B-11">
                    <mxGeometry relative="1" as="geometry"/>
                </mxCell>
                <mxCell id="nXtj2GoQp5qjTCfgWl4B-7" value="Calculo de las derivadas en antSol&lt;br&gt;(fi, gi, hi)" style="shape=process;whiteSpace=wrap;html=1;backgroundOutline=1;" vertex="1" parent="KJxBiZAR6ty1Yu_1hC99-1">
                    <mxGeometry x="330" y="-644" width="120" height="60" as="geometry"/>
                </mxCell>
                <mxCell id="nXtj2GoQp5qjTCfgWl4B-10" value="No" style="text;html=1;align=center;verticalAlign=middle;resizable=0;points=[];autosize=1;strokeColor=none;" vertex="1" parent="KJxBiZAR6ty1Yu_1hC99-1">
                    <mxGeometry x="395" y="-690" width="30" height="20" as="geometry"/>
                </mxCell>
                <mxCell id="nXtj2GoQp5qjTCfgWl4B-14" value="" style="edgeStyle=orthogonalEdgeStyle;rounded=0;orthogonalLoop=1;jettySize=auto;html=1;exitX=0;exitY=0.5;exitDx=0;exitDy=0;" edge="1" parent="KJxBiZAR6ty1Yu_1hC99-1" source="nXtj2GoQp5qjTCfgWl4B-11" target="nXtj2GoQp5qjTCfgWl4B-13">
                    <mxGeometry relative="1" as="geometry"/>
                </mxCell>
                <mxCell id="82uKs0kd77V17FQqs766-2" style="edgeStyle=orthogonalEdgeStyle;rounded=0;orthogonalLoop=1;jettySize=auto;html=1;exitX=1;exitY=0.5;exitDx=0;exitDy=0;" edge="1" parent="KJxBiZAR6ty1Yu_1hC99-1" source="nXtj2GoQp5qjTCfgWl4B-11" target="82uKs0kd77V17FQqs766-1">
                    <mxGeometry relative="1" as="geometry"/>
                </mxCell>
                <mxCell id="nXtj2GoQp5qjTCfgWl4B-11" value="| (fi*hi) / gi^2 | &amp;lt; 1" style="rhombus;whiteSpace=wrap;html=1;" vertex="1" parent="KJxBiZAR6ty1Yu_1hC99-1">
                    <mxGeometry x="320" y="-540" width="140" height="80" as="geometry"/>
                </mxCell>
                <mxCell id="nXtj2GoQp5qjTCfgWl4B-18" value="" style="edgeStyle=orthogonalEdgeStyle;rounded=0;orthogonalLoop=1;jettySize=auto;html=1;" edge="1" parent="KJxBiZAR6ty1Yu_1hC99-1" source="nXtj2GoQp5qjTCfgWl4B-13" target="nXtj2GoQp5qjTCfgWl4B-17">
                    <mxGeometry relative="1" as="geometry"/>
                </mxCell>
                <mxCell id="nXtj2GoQp5qjTCfgWl4B-13" value="sol = antSol - ( fi / gi )" style="whiteSpace=wrap;html=1;" vertex="1" parent="KJxBiZAR6ty1Yu_1hC99-1">
                    <mxGeometry x="157.5" y="-530" width="120" height="60" as="geometry"/>
                </mxCell>
                <mxCell id="nXtj2GoQp5qjTCfgWl4B-15" value="Sí" style="text;html=1;align=center;verticalAlign=middle;resizable=0;points=[];autosize=1;strokeColor=none;" vertex="1" parent="KJxBiZAR6ty1Yu_1hC99-1">
                    <mxGeometry x="300" y="-530" width="30" height="20" as="geometry"/>
                </mxCell>
                <mxCell id="HwthfstNxd-LeCskAe9U-0" style="edgeStyle=orthogonalEdgeStyle;rounded=0;orthogonalLoop=1;jettySize=auto;html=1;exitX=0;exitY=0.5;exitDx=0;exitDy=0;entryX=0;entryY=0.5;entryDx=0;entryDy=0;" edge="1" parent="KJxBiZAR6ty1Yu_1hC99-1" source="nXtj2GoQp5qjTCfgWl4B-17" target="nXtj2GoQp5qjTCfgWl4B-7">
                    <mxGeometry relative="1" as="geometry"/>
                </mxCell>
                <mxCell id="82uKs0kd77V17FQqs766-5" style="edgeStyle=orthogonalEdgeStyle;rounded=0;orthogonalLoop=1;jettySize=auto;html=1;exitX=1;exitY=0.5;exitDx=0;exitDy=0;entryX=0;entryY=0.5;entryDx=0;entryDy=0;" edge="1" parent="KJxBiZAR6ty1Yu_1hC99-1" source="nXtj2GoQp5qjTCfgWl4B-17" target="82uKs0kd77V17FQqs766-4">
                    <mxGeometry relative="1" as="geometry"/>
                </mxCell>
                <mxCell id="nXtj2GoQp5qjTCfgWl4B-17" value="&lt;span&gt;| sol - antSol | &amp;gt; error&lt;/span&gt;" style="rhombus;whiteSpace=wrap;html=1;" vertex="1" parent="KJxBiZAR6ty1Yu_1hC99-1">
                    <mxGeometry x="143.75" y="-430" width="147.5" height="80" as="geometry"/>
                </mxCell>
                <mxCell id="82uKs0kd77V17FQqs766-0" value="Sí" style="text;html=1;align=center;verticalAlign=middle;resizable=0;points=[];autosize=1;strokeColor=none;" vertex="1" parent="KJxBiZAR6ty1Yu_1hC99-1">
                    <mxGeometry x="125" y="-420" width="30" height="20" as="geometry"/>
                </mxCell>
                <mxCell id="82uKs0kd77V17FQqs766-9" style="edgeStyle=orthogonalEdgeStyle;rounded=0;orthogonalLoop=1;jettySize=auto;html=1;exitX=0.5;exitY=1;exitDx=0;exitDy=0;entryX=0.5;entryY=0;entryDx=0;entryDy=0;" edge="1" parent="KJxBiZAR6ty1Yu_1hC99-1" source="82uKs0kd77V17FQqs766-1" target="82uKs0kd77V17FQqs766-7">
                    <mxGeometry relative="1" as="geometry"/>
                </mxCell>
                <mxCell id="82uKs0kd77V17FQqs766-1" value="Regresa -1" style="rounded=0;whiteSpace=wrap;html=1;" vertex="1" parent="KJxBiZAR6ty1Yu_1hC99-1">
                    <mxGeometry x="500" y="-420" width="120" height="60" as="geometry"/>
                </mxCell>
                <mxCell id="82uKs0kd77V17FQqs766-3" value="No" style="text;html=1;align=center;verticalAlign=middle;resizable=0;points=[];autosize=1;strokeColor=none;" vertex="1" parent="KJxBiZAR6ty1Yu_1hC99-1">
                    <mxGeometry x="445" y="-530" width="30" height="20" as="geometry"/>
                </mxCell>
                <mxCell id="82uKs0kd77V17FQqs766-8" value="" style="edgeStyle=orthogonalEdgeStyle;rounded=0;orthogonalLoop=1;jettySize=auto;html=1;" edge="1" parent="KJxBiZAR6ty1Yu_1hC99-1" source="82uKs0kd77V17FQqs766-4" target="82uKs0kd77V17FQqs766-7">
                    <mxGeometry relative="1" as="geometry"/>
                </mxCell>
                <mxCell id="82uKs0kd77V17FQqs766-4" value="Regresa sol" style="rounded=0;whiteSpace=wrap;html=1;" vertex="1" parent="KJxBiZAR6ty1Yu_1hC99-1">
                    <mxGeometry x="330" y="-420" width="120" height="60" as="geometry"/>
                </mxCell>
                <mxCell id="82uKs0kd77V17FQqs766-6" value="No" style="text;html=1;align=center;verticalAlign=middle;resizable=0;points=[];autosize=1;strokeColor=none;" vertex="1" parent="KJxBiZAR6ty1Yu_1hC99-1">
                    <mxGeometry x="277.5" y="-420" width="30" height="20" as="geometry"/>
                </mxCell>
                <mxCell id="82uKs0kd77V17FQqs766-7" value="FIN" style="rounded=1;whiteSpace=wrap;html=1;" vertex="1" parent="KJxBiZAR6ty1Yu_1hC99-1">
                    <mxGeometry x="330" y="-280" width="120" height="60" as="geometry"/>
                </mxCell>
            </root>
        </mxGraphModel>
    </diagram>
</mxfile>